<svg xmlns="http://www.w3.org/2000/svg" width="150" height="50" viewBox="0 0 150 50">
  <g fill="#FFFFFF">
    <path d="M20,10 L20,40 L40,40 L40,30 L30,30 L30,20 L40,20 L40,10 L20,10 Z" />
    <path d="M45,10 L45,40 L65,40 L65,30 L55,30 L55,10 L45,10 Z" />
    <path d="M70,10 L70,40 L90,40 L90,30 L80,30 L80,10 L70,10 Z" />
    <path d="M95,10 L95,40 L115,40 L115,10 L105,10 L105,30 L105,30 L95,10 Z" />
    <circle cx="125" cy="16" r="6" />
    <rect x="120" y="25" width="10" height="15" />
  </g>
</svg>
